<?xml version="1.0" encoding="UTF-8" standalone="no"?>
<!DOCTYPE svg PUBLIC "-//W3C//DTD SVG 1.1//EN" "http://www.w3.org/Graphics/SVG/1.1/DTD/svg11.dtd">
<svg version="1.1" xmlns="http://www.w3.org/2000/svg" xmlns:xlink="http://www.w3.org/1999/xlink" preserveAspectRatio="xMidYMid meet" viewBox="81.09090909090912 76.50161698818471 463.0000000000002 462.99999999999994" width="450" height="450"><defs><path d="M494.26 77.67L496.31 77.88L498.34 78.17L500.34 78.54L502.31 78.99L504.25 79.51L506.17 80.11L508.05 80.78L509.89 81.53L511.7 82.34L513.48 83.22L515.21 84.16L516.9 85.17L518.55 86.24L520.16 87.38L521.72 88.57L523.23 89.82L524.7 91.12L526.11 92.48L527.47 93.9L528.78 95.36L530.03 96.87L531.22 98.43L532.35 100.04L533.42 101.69L534.43 103.38L535.38 105.12L536.26 106.89L537.07 108.7L537.81 110.55L538.48 112.43L539.08 114.34L539.6 116.28L540.05 118.26L540.42 120.26L540.71 122.28L540.92 124.33L541.05 126.41L541.09 128.5L541.09 485.5L541.05 487.6L540.92 489.67L540.71 491.72L540.42 493.75L540.05 495.75L539.6 497.72L539.08 499.66L538.48 501.58L537.81 503.46L537.07 505.3L536.26 507.11L535.38 508.89L534.43 510.62L533.42 512.31L532.35 513.96L531.22 515.57L530.03 517.13L528.78 518.64L527.47 520.11L526.11 521.52L524.7 522.88L523.23 524.19L521.72 525.44L520.16 526.63L518.55 527.76L516.9 528.83L515.21 529.84L513.48 530.79L511.7 531.67L509.89 532.48L508.05 533.22L506.17 533.89L504.25 534.49L502.31 535.01L500.34 535.46L498.34 535.83L496.31 536.12L494.26 536.33L492.18 536.46L490.09 536.5L133.09 536.5L131 536.46L128.92 536.33L126.87 536.12L124.85 535.83L122.85 535.46L120.87 535.01L118.93 534.49L117.02 533.89L115.14 533.22L113.29 532.48L111.48 531.67L109.7 530.79L107.97 529.84L106.28 528.83L104.63 527.76L103.02 526.63L101.46 525.44L99.95 524.19L98.48 522.88L97.07 521.52L95.71 520.11L94.41 518.64L93.16 517.13L91.96 515.57L90.83 513.96L89.76 512.31L88.75 510.62L87.81 508.89L86.93 507.11L86.12 505.3L85.37 503.46L84.7 501.58L84.1 499.66L83.58 497.72L83.13 495.75L82.76 493.75L82.47 491.72L82.26 489.67L82.13 487.6L82.09 485.5L82.09 128.5L82.13 126.41L82.26 124.33L82.47 122.28L82.76 120.26L83.13 118.26L83.58 116.28L84.1 114.34L84.7 112.43L85.37 110.55L86.12 108.7L86.93 106.89L87.81 105.12L88.75 103.38L89.76 101.69L90.83 100.04L91.96 98.43L93.16 96.87L94.41 95.36L95.71 93.9L97.07 92.48L98.48 91.12L99.95 89.82L101.46 88.57L103.02 87.38L104.63 86.24L106.28 85.17L107.97 84.16L109.7 83.22L111.48 82.34L113.29 81.53L115.14 80.78L117.02 80.11L118.93 79.51L120.87 78.99L122.85 78.54L124.85 78.17L126.87 77.88L128.92 77.67L131 77.54L133.09 77.5L490.09 77.5L492.18 77.54L494.26 77.67ZM386.23 435.06L469.77 435.06L469.77 312.68L386.23 312.68L386.23 435.06ZM271.82 435.06L355.36 435.06L355.36 173.14L271.82 173.14L271.82 435.06ZM153.71 435.06L237.25 435.06L237.25 243.79L153.71 243.79L153.71 435.06Z" id="apb0zcYy0"></path></defs><g><g><use xlink:href="#apb0zcYy0" opacity="1" fill="#59e799" fill-opacity="1"></use><g><use xlink:href="#apb0zcYy0" opacity="1" fill-opacity="0" stroke="#000000" stroke-width="1" stroke-opacity="0"></use></g></g></g></svg>