<?xml version="1.0" encoding="UTF-8" standalone="no"?>
<!DOCTYPE svg PUBLIC "-//W3C//DTD SVG 1.1//EN" "http://www.w3.org/Graphics/SVG/1.1/DTD/svg11.dtd">
<svg version="1.1" xmlns="http://www.w3.org/2000/svg" xmlns:xlink="http://www.w3.org/1999/xlink" preserveAspectRatio="xMidYMid meet" viewBox="56.20358475218105 56.20358475218094 529.5928304956379 529.5928304956382" width="525" height="525"><defs><path d="M529.17 57.4L531.52 57.64L533.84 57.97L536.13 58.39L538.39 58.91L540.61 59.51L542.81 60.19L544.96 60.96L547.07 61.82L549.14 62.75L551.18 63.75L553.16 64.83L555.1 65.99L556.99 67.21L558.83 68.52L560.62 69.88L562.35 71.31L564.03 72.8L565.64 74.36L567.2 75.98L568.7 77.65L570.13 79.38L571.49 81.17L572.79 83.01L574.01 84.9L575.17 86.84L576.26 88.83L577.27 90.86L578.19 92.93L579.04 95.05L579.81 97.2L580.49 99.39L581.09 101.61L581.61 103.88L582.03 106.17L582.36 108.48L582.6 110.83L582.75 113.21L582.8 115.6L582.8 524.4L582.75 526.8L582.6 529.17L582.36 531.52L582.03 533.84L581.61 536.13L581.09 538.39L580.49 540.61L579.81 542.81L579.04 544.96L578.19 547.07L577.27 549.14L576.26 551.18L575.17 553.16L574.01 555.1L572.79 556.99L571.49 558.83L570.13 560.62L568.7 562.35L567.2 564.03L565.64 565.64L564.03 567.2L562.35 568.7L560.62 570.13L558.83 571.49L556.99 572.79L555.1 574.01L553.16 575.17L551.18 576.26L549.14 577.27L547.07 578.19L544.96 579.04L542.81 579.81L540.61 580.49L538.39 581.09L536.13 581.61L533.84 582.03L531.52 582.36L529.17 582.6L526.79 582.75L524.4 582.8L115.6 582.8L113.21 582.75L110.83 582.6L108.48 582.36L106.17 582.03L103.88 581.61L101.61 581.09L99.39 580.49L97.2 579.81L95.05 579.04L92.93 578.19L90.86 577.27L88.82 576.26L86.84 575.17L84.9 574.01L83.01 572.79L81.17 571.49L79.38 570.13L77.65 568.7L75.97 567.2L74.36 565.64L72.8 564.03L71.31 562.35L69.88 560.62L68.51 558.83L67.21 556.99L65.99 555.1L64.83 553.16L63.75 551.18L62.75 549.14L61.82 547.07L60.96 544.96L60.19 542.81L59.51 540.61L58.91 538.39L58.39 536.13L57.97 533.84L57.64 531.52L57.4 529.17L57.25 526.8L57.2 524.4L57.2 115.6L57.25 113.21L57.4 110.83L57.64 108.48L57.97 106.17L58.39 103.88L58.91 101.61L59.51 99.39L60.19 97.2L60.96 95.05L61.82 92.93L62.75 90.86L63.75 88.83L64.83 86.84L65.99 84.9L67.21 83.01L68.51 81.17L69.88 79.38L71.31 77.65L72.8 75.98L74.36 74.36L75.97 72.8L77.65 71.31L79.38 69.88L81.17 68.52L83.01 67.21L84.9 65.99L86.84 64.83L88.82 63.75L90.86 62.75L92.93 61.82L95.05 60.96L97.2 60.19L99.39 59.51L101.61 58.91L103.88 58.39L106.17 57.97L108.48 57.64L110.83 57.4L113.21 57.25L115.6 57.2L524.4 57.2L526.79 57.25L529.17 57.4ZM139.21 466.64L234.87 466.64L234.87 247.62L139.21 247.62L139.21 466.64ZM405.47 466.64L501.13 466.64L501.13 326.5L405.47 326.5L405.47 466.64ZM274.46 466.64L370.12 466.64L370.12 166.72L274.46 166.72L274.46 466.64Z" id="a2FIHaHfXu"></path></defs><g><g><use xlink:href="#a2FIHaHfXu" opacity="1" fill="#49c5b6" fill-opacity="1"></use><g><use xlink:href="#a2FIHaHfXu" opacity="1" fill-opacity="0" stroke="#000000" stroke-width="1" stroke-opacity="0"></use></g></g></g></svg>