<svg id="Layer_1" data-name="Layer 1" xmlns="http://www.w3.org/2000/svg" viewBox="0 0 31 18.7"><defs><style>.cls-1{font-size:10.03px;fill:#4d4d4d;font-family:FranklinGothic-Book, Franklin Gothic Book;letter-spacing:0.07em;}.cls-2{letter-spacing:0.04em;}.cls-3{fill:#fff;}.cls-4{fill:none;stroke:#ccc;stroke-miterlimit:10;}.cls-5{fill:#3ed783;}</style></defs><title>logo</title><text class="cls-1" transform="translate(10.09 15.48) scale(0.97 0.97)"> <tspan class="cls-2" x="3.18" y="0">O</tspan><tspan x="9.88" y="0">TE</tspan></text><path class="cls-3" d="M299.68,320.15a1.11,1.11,0,0,0,.46.36.5.5,0,0,0,.62-.35v-.05a.51.51,0,0,0-.23-.56l-.05,0c-.54-.36-1,.51-.5.86l.05,0-.23-.56v.05l.62-.35q.17,0,0-.1c-.41-.5-1.11.21-.71.71Z" transform="translate(-294 -305.08)"/><path class="cls-3" d="M300.27,320.55a.5.5,0,0,0,0-1,.5.5,0,0,0,0,1Z" transform="translate(-294 -305.08)"/><path class="cls-3" d="M300.34,320.56a.5.5,0,0,0,0-1,.5.5,0,0,0,0,1Z" transform="translate(-294 -305.08)"/><path class="cls-3" d="M300.39,320.61a.5.5,0,0,0,0-1,.5.5,0,0,0,0,1Z" transform="translate(-294 -305.08)"/><path class="cls-3" d="M300.39,320.72a.5.5,0,0,0,0-1,.5.5,0,0,0,0,1Z" transform="translate(-294 -305.08)"/><path class="cls-3" d="M300.45,320.72a.5.5,0,0,0,0-1,.5.5,0,0,0,0,1Z" transform="translate(-294 -305.08)"/><path class="cls-3" d="M300.56,320.81a.5.5,0,0,0,0-1,.5.5,0,0,0,0,1Z" transform="translate(-294 -305.08)"/><path class="cls-3" d="M300.28,320.42a.5.5,0,0,0,0-1,.5.5,0,0,0,0,1Z" transform="translate(-294 -305.08)"/><path class="cls-3" d="M300.31,320.42a.5.5,0,0,0,0-1,.5.5,0,0,0,0,1Z" transform="translate(-294 -305.08)"/><path class="cls-3" d="M300.36,320.45a.5.5,0,0,0,0-1,.5.5,0,0,0,0,1Z" transform="translate(-294 -305.08)"/><path class="cls-3" d="M300.36,320.51a.5.5,0,0,0,0-1,.5.5,0,0,0,0,1Z" transform="translate(-294 -305.08)"/><path class="cls-3" d="M300.42,320.56a.5.5,0,0,0,0-1,.5.5,0,0,0,0,1Z" transform="translate(-294 -305.08)"/><path class="cls-3" d="M300.46,320.59a.5.5,0,0,0,0-1,.5.5,0,0,0,0,1Z" transform="translate(-294 -305.08)"/><path class="cls-3" d="M300.58,320.86a.5.5,0,0,0,0-1,.5.5,0,0,0,0,1Z" transform="translate(-294 -305.08)"/><path class="cls-3" d="M300.62,320.91a.5.5,0,0,0,0-1,.5.5,0,0,0,0,1Z" transform="translate(-294 -305.08)"/><path class="cls-3" d="M300.64,320.95a.5.5,0,0,0,0-1,.5.5,0,0,0,0,1Z" transform="translate(-294 -305.08)"/><path class="cls-3" d="M300.68,320.95a.5.5,0,0,0,0-1,.5.5,0,0,0,0,1Z" transform="translate(-294 -305.08)"/><path class="cls-3" d="M300.76,321a.5.5,0,0,0,0-1,.5.5,0,0,0,0,1Z" transform="translate(-294 -305.08)"/><path class="cls-3" d="M300.74,321.1a.5.5,0,0,0,0-1,.5.5,0,0,0,0,1Z" transform="translate(-294 -305.08)"/><path class="cls-3" d="M300.78,321.1a.5.5,0,0,0,0-1,.5.5,0,0,0,0,1Z" transform="translate(-294 -305.08)"/><path class="cls-3" d="M300.8,321.11a.5.5,0,0,0,0-1,.5.5,0,0,0,0,1Z" transform="translate(-294 -305.08)"/><path class="cls-3" d="M300.82,321.12a.5.5,0,0,0,0-1,.5.5,0,0,0,0,1Z" transform="translate(-294 -305.08)"/><path class="cls-3" d="M300.53,320.68a.5.5,0,0,0,0-1,.5.5,0,0,0,0,1Z" transform="translate(-294 -305.08)"/><path class="cls-3" d="M300.56,320.76a.5.5,0,0,0,0-1,.5.5,0,0,0,0,1Z" transform="translate(-294 -305.08)"/><path class="cls-3" d="M300.62,320.79a.5.5,0,0,0,0-1,.5.5,0,0,0,0,1Z" transform="translate(-294 -305.08)"/><rect class="cls-4" x="0.5" y="6.19" width="11" height="11.23"/><g id="check"><polygon class="cls-5" points="6.72 12.88 3.12 7.78 1.92 9.48 6.72 16.29 17 1.7 15.8 0 6.72 12.88"/></g></svg>